# xmcd CD database file
#
# Track frame offsets:
#	150
#	20996
#	43696
#	64102
#	82344
#	104901
#	117872
#	135272
#	154553
#	175233
#	187400
#	200565
#	217830
#	228968
#	246440
#	256104
#	269375
#	283499
#
# Disc length: 3959 seconds
#
# Revision: 0
# Processed by: cddbd v1.5.2PL0 Copyright (c) Steve Scherf et al.
# Submitted via: CDex 1.77
#
DISCID=180f7512
DTITLE=VARIOS ARTISTAS - EL BAILE DE LOS ANIMALES
DYEAR=2002
DGENRE=Merengue
TTITLE0=EL BAILE DEL PERRITO
TTITLE1=EL TIBURON
TTITLE2=LA CABRA
TTITLE3=LA VACA CHENTA
TTITLE4=EL VENAO
TTITLE5=EL GATO VOLADOR
TTITLE6=EL BAILE DEL OSO
TTITLE7=LA VACA
TTITLE8=POR LA PLATA BAILA EL MONO
TTITLE9=AL GATO Y AL RATON
TTITLE10=EL TUCANAZO
TTITLE11=AMIGO BRONCO
TTITLE12=CANGREJITO PLAYERO
TTITLE13=LA SIRENITA
TTITLE14=EL BAILE DEL GALLITO
TTITLE15=CAMARON PELAO
TTITLE16=LA CULEBRA
TTITLE17=EL ALACRAN
EXTD=YEAR: 2002
EXTT0=
EXTT1=
EXTT2=
EXTT3=
EXTT4=
EXTT5=
EXTT6=
EXTT7=
EXTT8=
EXTT9=
EXTT10=
EXTT11=
EXTT12=
EXTT13=
EXTT14=
EXTT15=
EXTT16=
EXTT17=
PLAYORDER=
